<svg xmlns="http://www.w3.org/2000/svg" viewBox="0 0 109.99999999999999 109.99999999999999"><g class="layer"><path d="M38.013 37.703c1.58-1.939 3.501-3.696 5.266-5.48l9.396-9.498 9.016-9.128c1.463-1.479 2.931-3.19 4.522-4.529.507-.427 1.382-.714 2.039-.895.91-.266 1.957-.3 2.801.197 1.284.75 2.43 2.193 3.497 3.234l6.98 6.892L93.824 30.67c2.118 2.096 4.378 4.148 6.384 6.358.576.64 1.274 1.457 1.47 2.311.296 1.264-.328 2.265-.959 3.286-1.482 1.854-3.29 3.525-4.95 5.217l-8.214 8.318c-4.923 4.976-9.751 10.483-15.015 15.08-.514.447-1.043.81-1.713 1.005l-.149.037c-.55.158-1.08.281-1.646.2-.708-.096-1.53-.445-2.07-.894-1.704-1.42-3.277-3.172-4.848-4.726l-8.381-8.292-9.769-9.677c-2.104-2.082-4.314-4.099-6.158-6.415-.22-.275-.406-.514-.52-.853-.482-1.419.098-2.66.714-3.907z" fill="#2b2a2b"/><path d="M83.02 34.19c1.24-.14 2.56-.17 3.75.27 1.34.5 2.7 1.83 3.28 3.14.64 1.47.62 3.08.03 4.56-.72 1.79-2.12 2.79-3.82 3.53-1.37.27-2.49.24-3.8-.21-1.37-.47-2.77-1.97-3.36-3.27-.58-1.27-.58-3.04-.07-4.34.74-1.84 2.25-2.9 3.99-3.68zM67.19 34.19c1.36-.09 2.68-.22 3.98.35 1.52.66 2.6 1.85 3.21 3.37.6 1.5.46 2.99-.17 4.45-.77 1.76-1.9 2.58-3.66 3.28-1.37.26-2.47.34-3.82-.15-1.44-.53-2.67-1.66-3.3-3.06-.57-1.26-.8-3.04-.29-4.37.76-1.96 2.16-3.04 4.05-3.87zM51.41 34.19c1.453-.19 2.966-.13 4.31.48 1.372.62 2.385 1.97 2.896 3.36.541 1.44.44 2.98-.21 4.37-.833 1.8-2.035 2.64-3.85 3.3-1.202.19-2.184.25-3.367-.12-1.634-.52-2.696-1.51-3.448-3-.691-1.34-.922-2.88-.43-4.32.73-2.14 2.134-3.14 4.098-4.07z" fill="#61C0C2"/><path d="m67.94 4.86.95-.14c2.28-.19 4.36.72 6.06 2.15 2 1.69 3.83 3.68 5.68 5.53l9.53 9.5 8.29 8.27c1.53 1.53 3.21 3.03 4.58 4.7.83 1.01 1.79 2.4 1.9 3.73.15 1.75.33 2.99-.31 4.71-1.08 2.92-4.93 5.92-7.15 8.13L86.23 62.65c-3.7 3.68-7.34 7.8-11.29 11.18-1.04.88-2.01 1.41-3.25 1.96-1.56.7-4.61-.01-6.14-.59-.18-1.77-.13-3.63-.01-5.41 1.55 1.29 2.05 2.02 4.2 2.38.87-.22 1.56-.51 2.26-1.1 2.16-1.84 4.14-4.01 6.15-6.02L88.9 54.3l7.92-7.88c1.29-1.29 3.01-2.71 4.02-4.23.76-1.14.47-2.17.21-3.42-.87-1.34-2.35-2.59-3.49-3.72l-6.59-6.6L78.69 16.2c-2.62-2.6-5.41-6.06-8.62-7.88-1.18.36-2.35.71-3.36 1.45-2.85 2.1-5.48 5.27-8.01 7.79l-16.72 16.7c-1.34 1.33-4.41 3.87-4.36 5.86.07 3.05 4.35 6.09 6.47 8.13l-5.83-.16c-1.34-1.18-2.6-2.43-3.51-3.98-.73-1.25-1.41-3.33-1.02-4.78.23-.86.49-1.68.92-2.47 1.57-2.89 4.47-5.26 6.79-7.57l9.78-9.78c4.05-4.04 8.07-8.67 12.48-12.29 1.33-1.1 2.54-1.87 4.21-2.36z" fill="#61C0C2"/><path d="m19.13 47.783 25.148-.06c4.42 0 9.14-.32 13.51.16 1.614.18 3.248.5 4.59 1.44 1.785 1.26 2.857 3.74 3.168 5.83.27 1.78.07 3.88.07 5.69l.01 11.68v15.25c0 2.55.21 5.32-.12 7.85a9.305 9.305 0 0 1-1.724 4.26c-1.744 2.33-3.749 2.61-6.435 3l-25.297.05c-4.56 0-9.652.45-14.132-.15-1.694-.22-3.307-.64-4.64-1.73-1.614-1.31-2.717-3.29-2.897-5.36-.21-2.32-.07-4.75-.06-7.08v-12.65l.01-13.79c0-2.68-.19-5.59.25-8.23.22-1.35 1.063-2.62 1.945-3.65 1.644-1.93 4.23-2.29 6.605-2.51z" fill="#61C0C2"/><path d="M18.19 51.75c2.46-.24 5.02-.11 7.5-.11h13.18l12.65-.01c2.05 0 4.27-.16 6.31.03.65.06 1.46.47 2.04.8.82.45 1.56 1.16 1.8 2.09.36 1.41.15 3.21.16 4.67l.01 9.63-.01 16.97c0 2.92.13 5.92-.03 8.84-.05.84-.14 1.89-.6 2.62-.68 1.08-1.81 1.33-2.97 1.6-2.33.25-4.75.14-7.09.15l-11.53.01c-6.91 0-14.11.43-20.99-.07-.67-.05-1.29-.17-1.89-.5l-.13-.08c-.49-.27-.94-.56-1.28-1.01-.42-.56-.75-1.37-.81-2.06-.19-2.17-.05-4.47-.05-6.64V77.11l.01-13.49c0-2.9-.12-5.84.23-8.72.04-.34.08-.64.24-.95.66-1.31 1.93-1.77 3.24-2.2z" fill="#2B2A2B"/><path d="M45.68 79.06c1.2-.17 2.68-.25 3.82.23 1.62.68 2.74 1.65 3.42 3.27.63 1.51.6 3.14-.04 4.64-.75 1.77-2.31 2.74-4.01 3.43-1 .22-2.01.21-3.01-.1-1.51-.46-2.89-1.43-3.62-2.86-.75-1.46-1.07-2.76-.57-4.33.68-2.09 2.1-3.31 4.01-4.28zM25.99 79.07c1.22-.21 2.77-.23 3.93.24 1.32.53 2.71 1.86 3.25 3.2.64 1.61.56 3.27-.13 4.86-.79 1.81-2.15 2.54-3.9 3.25-1.62.3-2.98.19-4.39-.68-1.45-.9-2.48-2.2-2.85-3.88l-.04-.15c-.25-1.14-.11-2.17.28-3.25.64-1.75 2.24-2.85 3.85-3.59zM46.372 59.693c.973-.14 2.276-.19 3.208.14 1.473.52 2.976 1.82 3.648 3.23.672 1.4.692 3.11.14 4.54-.791 2.08-2.235 2.89-4.16 3.76-1.082-.01-2.234.23-3.267-.19l-.13-.06c-1.383-.57-2.646-1.66-3.327-3.01-.481-.96-.993-2.35-.622-3.4l.15-.45.341-1.04c.752-1.83 2.265-2.8 4.02-3.52zM26.548 59.693c1.272-.1 2.305-.17 3.538.28 1.483.56 2.746 1.57 3.377 3.05.692 1.64.692 3.29-.01 4.93-.822 1.92-2.215 2.67-4.059 3.43-.862.04-1.894.16-2.726-.08-1.644-.47-3.117-1.59-3.889-3.12-.742-1.47-.862-2.99-.34-4.54.72-2.14 2.204-3.03 4.109-3.95z" fill="#61C0C2"/></g></svg>
